<?xml version="1.0" encoding="utf-8"?>
<!-- Generator: Adobe Illustrator 23.0.0, SVG Export Plug-In . SVG Version: 6.00 Build 0)  -->
<svg version="1.1" id="Слой_1" xmlns="http://www.w3.org/2000/svg" xmlns:xlink="http://www.w3.org/1999/xlink" x="0px" y="0px"
	 viewBox="0 0 106.4 17.6" style="enable-background:new 0 0 106.4 17.6;" xml:space="preserve">
<style type="text/css">
	.st0{fill:#FFD80E;}
	.st1{fill:#FFFFFF;}
</style>
<g>
	<path class="st0" d="M0,17.6V0.4h12.5v2.9H3.7v4.1h7.6v2.9H3.7v7.3H0z"/>
	<path class="st0" d="M15,11.9l3.6-0.3c0.2,1.1,0.7,2,1.3,2.5c0.7,0.5,1.5,0.8,2.7,0.8c1.2,0,2.1-0.2,2.7-0.7c0.6-0.5,0.9-1,0.9-1.7
		c0-0.4-0.1-0.8-0.4-1c-0.3-0.3-0.7-0.5-1.3-0.7c-0.4-0.1-1.4-0.4-2.9-0.8c-2-0.5-3.4-1-4.1-1.7c-1.1-0.9-1.7-2.1-1.7-3.5
		c0-0.9,0.3-1.7,0.8-2.5s1.3-1.3,2.3-1.7c1-0.4,2.2-0.6,3.6-0.6c2.3,0,4,0.5,5.2,1.4s1.8,2.2,1.8,3.8l-3.7,0.2
		c-0.2-0.9-0.5-1.5-1-1.9s-1.3-0.6-2.3-0.6c-1.1,0-1.9,0.2-2.5,0.6c-0.4,0.3-0.6,0.6-0.6,1.1c0,0.4,0.2,0.8,0.5,1
		c0.5,0.4,1.6,0.8,3.4,1.1c1.8,0.4,3.1,0.8,4,1.2c0.9,0.4,1.5,1,2,1.7s0.7,1.7,0.7,2.7c0,1-0.3,1.9-0.9,2.8s-1.4,1.5-2.5,1.9
		s-2.4,0.6-4,0.6c-2.3,0-4.1-0.5-5.3-1.5S15.3,13.8,15,11.9z"/>
	<path class="st0" d="M49.6,17.6h-4L44,13.7h-7.3l-1.5,3.9h-3.9l7.1-17.2h3.9L49.6,17.6z M42.9,10.8l-2.5-6.4l-2.5,6.4H42.9z"/>
	<path class="st1" d="M52.7,17.5v-17h3.7v14.1h9.1v2.9H52.7z"/>
	<path class="st1" d="M68.4,17.5V0.3h3.7v17.2H68.4z"/>
	<path class="st1" d="M75.2,11.6l3.6-0.3c0.2,1.1,0.7,2,1.3,2.5c0.7,0.5,1.5,0.8,2.7,0.8c1.2,0,2.1-0.2,2.7-0.7s0.9-1,0.9-1.7
		c0-0.4-0.1-0.8-0.4-1c-0.3-0.3-0.7-0.5-1.3-0.7c-0.4-0.1-1.4-0.4-2.9-0.8c-2-0.5-3.4-1-4.1-1.7c-1.1-0.9-1.7-2.1-1.7-3.5
		c0-0.9,0.3-1.7,0.8-2.5C77.2,1.3,78,0.7,79,0.3c1-0.4,2.2-0.6,3.6-0.6c2.3,0,4,0.5,5.2,1.4s1.8,2.2,1.8,3.8l-3.7,0.2
		c-0.2-0.9-0.5-1.5-1-1.9s-1.3-0.6-2.3-0.6c-1.1,0-1.9,0.2-2.5,0.6c-0.4,0.3-0.6,0.6-0.6,1.1c0,0.4,0.2,0.8,0.5,1
		c0.5,0.4,1.6,0.8,3.4,1.1c1.8,0.4,3.1,0.8,4,1.2c0.9,0.4,1.5,1,2,1.7s0.7,1.7,0.7,2.7c0,1-0.3,1.9-0.9,2.8s-1.4,1.5-2.5,1.9
		c-1.1,0.4-2.4,0.6-4,0.6c-2.3,0-4.1-0.5-5.3-1.5C76.2,15,75.5,13.5,75.2,11.6z"/>
	<path class="st1" d="M97.8,17.2V2.9h-5.4V0h14.5v2.9h-5.4v14.3H97.8z"/>
</g>
</svg>
